<svg width="250" height="250" viewBox="0 0 250 250" fill="none" xmlns="http://www.w3.org/2000/svg">
<g clip-path="url(#clip0_345_113)">
<g clip-path="url(#clip1_345_113)">
<path d="M277.092 230.977C278.246 227.836 145.753 127.073 145.753 127.073C129.166 114.744 120.442 114.55 104.039 127.073C104.039 127.073 -28.2607 227.755 -27.1472 230.852L-27.174 230.875C-27.1603 230.902 -27.1383 230.921 -27.1198 230.945C-25.998 234.025 -24.3659 236.892 -22.2929 239.423C-21.4172 240.492 -20.3619 241.388 -19.3471 242.319L-19.3964 242.357C-19.3156 242.43 -19.208 242.463 -19.1271 242.536C-14.8257 246.4 -9.40134 248.903 -3.37527 249.618C-3.28074 249.629 -3.20464 249.679 -3.11012 249.69H-2.74627C-1.83011 249.778 -0.959136 250 -0.0209817 250H250.107C262.423 250 272.858 242.199 277.003 231.263C277.053 231.181 277.129 231.122 277.174 231.039L277.092 230.977Z" fill="#96A9B2"/>
<path d="M125 111.956L0 211.957V70.2901C0 56.4817 10.4921 45.29 23.4375 45.29H226.562C239.508 45.29 250 56.4817 250 70.2901V211.957L125 111.956Z" fill="#B9C5C6"/>
<path d="M-12.6812 61.9359L106.223 154.726C121.23 165.729 129.123 165.903 143.964 154.726L262.681 62.083C260.622 58.3736 257.538 55.443 254.012 53.1063L255.645 51.8351C251.659 48.2304 246.565 45.8936 240.91 45.29L9.02142 45.2982C3.3823 45.8936 -1.72033 48.2385 -5.69754 51.8351L-4.07661 53.0905C-7.56213 55.3947 -10.6172 58.2748 -12.6812 61.9359Z" fill="#EDECE6"/>
<path d="M-37.9568 20.3261C-39.1931 23.6825 102.764 131.347 102.764 131.347C120.536 144.519 129.883 144.727 147.458 131.347C147.458 131.347 289.208 23.7696 288.014 20.4593L288.043 20.4353C288.029 20.406 288.005 20.3872 287.986 20.3605C286.784 17.0693 285.035 14.0066 282.814 11.3025C281.876 10.1595 280.745 9.20292 279.658 8.20738L279.711 8.16644C279.625 8.08911 279.509 8.05272 279.423 7.97539C274.814 3.84636 269.002 1.17165 262.546 0.408093C262.445 0.395747 262.363 0.343113 262.262 0.330766H261.873C260.891 0.236541 259.958 0 258.952 0H-9.04297C-22.2396 0 -33.4203 8.33604 -37.8604 20.0207C-37.9134 20.1078 -37.9949 20.1708 -38.0435 20.2598L-37.9568 20.3261Z" fill="#DCE2E2"/>
<path d="M142.286 75.5103H123.422C122.625 75.5103 121.861 75.8269 121.297 76.3905C120.734 76.9541 120.417 77.7186 120.417 78.5156V89.1221C120.417 89.9191 120.734 90.6836 121.297 91.2472C121.861 91.8108 122.625 92.1274 123.422 92.1274H138.762C139.559 92.1274 140.323 92.4441 140.887 93.0077C141.45 93.5713 141.767 94.3357 141.767 95.1328V100.805C141.767 101.602 141.45 102.366 140.887 102.93C140.323 103.493 139.559 103.81 138.762 103.81H123.422C122.625 103.81 121.861 104.127 121.297 104.69C120.734 105.254 120.417 106.018 120.417 106.815V118.328C120.417 119.125 120.734 119.89 121.297 120.453C121.861 121.017 122.625 121.333 123.422 121.333H143.596C144.393 121.333 145.158 121.65 145.721 122.214C146.285 122.777 146.602 123.542 146.602 124.339V130.414C146.602 131.211 146.285 131.975 145.721 132.539C145.158 133.102 144.393 133.419 143.596 133.419H106.604C105.807 133.419 105.043 133.102 104.479 132.539C103.915 131.975 103.599 131.211 103.599 130.414V66.6313C103.599 65.8343 103.915 65.0698 104.479 64.5062C105.043 63.9426 105.807 63.626 106.604 63.626H143.132C144.963 63.626 146.368 65.248 146.107 67.0601L145.261 72.9331C145.158 73.6486 144.8 74.303 144.254 74.7764C143.707 75.2497 143.009 75.5102 142.286 75.5103Z" fill="#597B91"/>
</g>
</g>
<defs>
<clipPath id="clip0_345_113">
<rect width="250" height="250" rx="33" fill="white"/>
</clipPath>
<clipPath id="clip1_345_113">
<rect width="250" height="250" fill="white"/>
</clipPath>
</defs>
</svg>
