<svg width="250" height="250" viewBox="0 0 250 250" fill="none" xmlns="http://www.w3.org/2000/svg">
<g clip-path="url(#clip0_352_118)">
<path d="M191.406 0H58.5938C26.2333 0 0 26.2333 0 58.5938V191.406C0 223.767 26.2333 250 58.5938 250H191.406C223.767 250 250 223.767 250 191.406V58.5938C250 26.2333 223.767 0 191.406 0Z" fill="url(#paint0_radial_352_118)"/>
<path d="M191.406 0H58.5938C26.2333 0 0 26.2333 0 58.5938V191.406C0 223.767 26.2333 250 58.5938 250H191.406C223.767 250 250 223.767 250 191.406V58.5938C250 26.2333 223.767 0 191.406 0Z" fill="url(#paint1_radial_352_118)"/>
<path d="M125.009 27.3438C98.4873 27.3438 95.1582 27.46 84.7422 27.9336C74.3457 28.4102 67.249 30.0557 61.04 32.4707C54.6162 34.9648 49.168 38.3018 43.7402 43.7314C38.3076 49.1602 34.9707 54.6084 32.4688 61.0293C30.0469 67.2402 28.3994 74.3398 27.9316 84.7314C27.4658 95.1484 27.3438 98.4785 27.3438 125.001C27.3438 151.523 27.4609 154.842 27.9336 165.258C28.4121 175.654 30.0576 182.751 32.4707 188.96C34.9668 195.384 38.3037 200.832 43.7334 206.26C49.1602 211.692 54.6084 215.037 61.0273 217.531C67.2412 219.946 74.3389 221.592 84.7334 222.068C95.1504 222.542 98.4766 222.658 124.997 222.658C151.521 222.658 154.84 222.542 165.256 222.068C175.652 221.592 182.757 219.946 188.971 217.531C195.392 215.037 200.832 211.692 206.258 206.26C211.69 200.832 215.026 195.384 217.529 188.963C219.93 182.751 221.578 175.652 222.066 165.26C222.534 154.844 222.656 151.523 222.656 125.001C222.656 98.4785 222.534 95.1504 222.066 84.7334C221.578 74.3369 219.93 67.2412 217.529 61.0322C215.026 54.6084 211.69 49.1602 206.258 43.7314C200.826 38.2998 195.394 34.9629 188.965 32.4717C182.739 30.0557 175.639 28.4092 165.242 27.9336C154.825 27.46 151.509 27.3438 124.979 27.3438H125.009ZM116.248 44.9424C118.849 44.9385 121.75 44.9424 125.009 44.9424C151.084 44.9424 154.174 45.0361 164.471 45.5039C173.992 45.9395 179.16 47.5303 182.603 48.8672C187.16 50.6367 190.409 52.7529 193.825 56.1719C197.243 59.5898 199.358 62.8447 201.133 67.4023C202.47 70.8398 204.063 76.0078 204.496 85.5293C204.964 95.8242 205.065 98.916 205.065 124.979C205.065 151.041 204.964 154.134 204.496 164.428C204.061 173.949 202.47 179.117 201.133 182.556C199.363 187.113 197.243 190.358 193.825 193.774C190.407 197.192 187.162 199.308 182.603 201.078C179.164 202.421 173.992 204.008 164.471 204.443C154.176 204.911 151.084 205.013 125.009 205.013C98.9326 205.013 95.8418 204.911 85.5478 204.443C76.0264 204.004 70.8584 202.413 67.4131 201.076C62.8564 199.306 59.6006 197.19 56.1826 193.772C52.7646 190.354 50.6494 187.107 48.875 182.548C47.5381 179.109 45.9453 173.941 45.5117 164.42C45.0439 154.125 44.9502 151.033 44.9502 124.954C44.9502 98.876 45.0439 95.7998 45.5117 85.5049C45.9473 75.9834 47.5381 70.8154 48.875 67.373C50.6455 62.8154 52.7646 59.5605 56.1836 56.1426C59.6016 52.7246 62.8564 50.6084 67.4141 48.835C70.8564 47.4922 76.0264 45.9053 85.5478 45.4678C94.5566 45.0605 98.0479 44.9385 116.248 44.918V44.9424ZM177.138 61.1572C170.668 61.1572 165.419 66.4014 165.419 72.8721C165.419 79.3418 170.668 84.5908 177.138 84.5908C183.607 84.5908 188.856 79.3418 188.856 72.8721C188.856 66.4023 183.607 61.1533 177.138 61.1533V61.1572ZM125.009 74.8496C97.3135 74.8496 74.8584 97.3047 74.8584 125.001C74.8584 152.697 97.3135 175.142 125.009 175.142C152.705 175.142 175.152 152.697 175.152 125.001C175.152 97.3057 152.703 74.8496 125.007 74.8496H125.009ZM125.009 92.4482C142.986 92.4482 157.562 107.021 157.562 125.001C157.562 142.979 142.986 157.554 125.009 157.554C107.03 157.554 92.457 142.979 92.457 125.001C92.457 107.021 107.03 92.4482 125.009 92.4482Z" fill="white"/>
</g>
<defs>
<radialGradient id="paint0_radial_352_118" cx="0" cy="0" r="1" gradientUnits="userSpaceOnUse" gradientTransform="translate(66.4062 269.255) rotate(-90) scale(247.769 230.444)">
<stop stop-color="#FFDD55"/>
<stop offset="0.1" stop-color="#FFDD55"/>
<stop offset="0.5" stop-color="#FF543E"/>
<stop offset="1" stop-color="#C837AB"/>
</radialGradient>
<radialGradient id="paint1_radial_352_118" cx="0" cy="0" r="1" gradientUnits="userSpaceOnUse" gradientTransform="translate(-41.876 18.0088) rotate(78.681) scale(110.754 456.531)">
<stop stop-color="#3771C8"/>
<stop offset="0.128" stop-color="#3771C8"/>
<stop offset="1" stop-color="#6600FF" stop-opacity="0"/>
</radialGradient>
<clipPath id="clip0_352_118">
<rect width="250" height="250" fill="white"/>
</clipPath>
</defs>
</svg>
