<svg width="250" height="250" viewBox="0 0 250 250" fill="none" xmlns="http://www.w3.org/2000/svg">
<g clip-path="url(#clip0_352_113)">
<path d="M191.406 0H58.5938C26.2333 0 0 26.2333 0 58.5938V191.406C0 223.767 26.2333 250 58.5938 250H191.406C223.767 250 250 223.767 250 191.406V58.5938C250 26.2333 223.767 0 191.406 0Z" fill="white"/>
<path d="M191.406 0H58.5938C26.2333 0 0 26.2333 0 58.5938V191.406C0 223.767 26.2333 250 58.5938 250H191.406C223.767 250 250 223.767 250 191.406V58.5938C250 26.2333 223.767 0 191.406 0Z" fill="#0A66C2"/>
<path d="M180.386 212.583H208.97C210.006 212.583 210.999 212.172 211.732 211.439C212.464 210.707 212.876 209.714 212.876 208.678L212.891 148.285C212.891 116.72 206.089 92.457 169.201 92.457C155.179 91.9355 141.955 99.1641 134.819 111.234C134.784 111.293 134.731 111.339 134.668 111.364C134.605 111.39 134.535 111.394 134.469 111.376C134.403 111.358 134.345 111.32 134.303 111.266C134.262 111.212 134.239 111.145 134.238 111.077V99.2773C134.238 98.2413 133.827 97.2478 133.094 96.5152C132.362 95.7826 131.368 95.3711 130.332 95.3711H103.206C102.17 95.3711 101.176 95.7826 100.444 96.5152C99.7114 97.2478 99.2998 98.2413 99.2998 99.2773V208.672C99.2998 209.708 99.7114 210.701 100.444 211.434C101.176 212.167 102.17 212.578 103.206 212.578H131.788C132.824 212.578 133.818 212.167 134.55 211.434C135.283 210.701 135.694 209.708 135.694 208.672V154.597C135.694 139.307 138.595 124.499 157.551 124.499C176.237 124.499 176.479 141.995 176.479 155.587V208.677C176.479 209.713 176.891 210.706 177.624 211.439C178.356 212.171 179.35 212.583 180.386 212.583ZM37.1094 58.2305C37.1094 69.8164 46.6475 79.3496 58.2344 79.3496C69.8184 79.3486 79.3506 69.8096 79.3506 58.2256C79.3486 46.6416 69.8154 37.1094 58.2305 37.1094C46.6426 37.1094 37.1094 46.6445 37.1094 58.2305ZM43.9053 212.583H72.5254C73.5614 212.583 74.555 212.171 75.2875 211.439C76.0201 210.706 76.4316 209.713 76.4316 208.677V99.2773C76.4316 98.2413 76.0201 97.2478 75.2875 96.5152C74.555 95.7826 73.5614 95.3711 72.5254 95.3711H43.9053C42.8693 95.3711 41.8757 95.7826 41.1431 96.5152C40.4106 97.2478 39.999 98.2413 39.999 99.2773V208.677C39.999 209.713 40.4106 210.706 41.1431 211.439C41.8757 212.171 42.8693 212.583 43.9053 212.583Z" fill="white"/>
</g>
<defs>
<clipPath id="clip0_352_113">
<rect width="250" height="250" fill="white"/>
</clipPath>
</defs>
</svg>
