<svg width="50" height="50" viewBox="0 0 50 50" fill="none" xmlns="http://www.w3.org/2000/svg">
<g clip-path="url(#clip0_238_161)">
<path d="M34.3417 24.9499L47.1562 13.8166V35.9562L34.3417 24.9499ZM17.8292 26.8353L22.3292 30.7416C23.0354 31.3416 23.9562 31.7041 24.9625 31.7041H24.9979H25.025C26.0333 31.7041 26.9542 31.3395 27.6687 30.7353L27.6625 30.7395L32.1625 26.8333L45.8417 38.5812H4.15625L17.8292 26.8353ZM4.1375 11.177H45.8667L25.8229 28.5853C25.5976 28.7636 25.3186 28.8605 25.0312 28.8603H25.0021H24.975C24.6866 28.8607 24.4067 28.763 24.1812 28.5833L24.1833 28.5853L4.1375 11.177ZM2.84375 13.8145L15.6562 24.9478L2.84375 35.9478V13.8145ZM47.8438 8.72909C47.3438 8.47909 46.7562 8.33325 46.1333 8.33325H3.87292C3.26908 8.3334 2.67355 8.4739 2.13333 8.74367L2.15625 8.73325C1.50953 9.05223 0.964891 9.54571 0.583863 10.1579C0.202835 10.7702 0.000598642 11.4767 0 12.1978L0 37.5562C0.00110292 38.5824 0.409276 39.5664 1.13496 40.292C1.86064 41.0177 2.84456 41.4259 3.87083 41.427H46.1271C47.1534 41.4259 48.1373 41.0177 48.863 40.292C49.5886 39.5664 49.9968 38.5824 49.9979 37.5562V12.1978C49.9979 10.6833 49.125 9.37075 47.8542 8.7395L47.8312 8.72909H47.8438Z" fill="white"/>
</g>
<defs>
<clipPath id="clip0_238_161">
<rect width="50" height="50" fill="white"/>
</clipPath>
</defs>
</svg>
